<svg fill="none" xmlns="http://www.w3.org/2000/svg" viewBox="0 0 301 400"><path d="M6.1 140a7.2 7.2 0 00-5 11l142.2 245a7.8 7.8 0 0013.5 0L299 150.6c2.7-4.7-.6-9.5-5.9-10.6l-140.6-29.8c-1.6-.3-3.1-.3-4.7 0L6.1 140z" fill="#108775"/><path d="M144.5 2.2L29 110.2a7.5 7.5 0 00-1.7 8.3l115.6 276.8a7.9 7.9 0 0014.5 0l115.6-276.8c1.2-2.8.6-6.1-1.7-8.3L155.6 2.2c-3-3-8-3-11 0z" fill="#35495E"/><path d="M77.2 35.6c-12.2 1-25.4 35-23.2 59.9 1.4 16.3 7.7 24.7 16.3 28.2a18 18 0 0111.3 17L80.3 262a16.6 16.6 0 0018.1 16.7 16.7 16.7 0 0015-19.6L91 139.8a18.1 18.1 0 018.2-18.6c7.9-5 12.6-14.3 11.2-30.7-2.2-24.8-20.5-56-33.2-54.9zM167.8 22.2c-2.2 0-3.1 1.6-3.1 4l2.3 57.6c0 2.4 0 4-2.3 4-2.4 0-2.4-1.6-2.4-4l-3-57.7c0-2.2-1-3.9-3.2-3.9-2.3 0-3.1 1.8-3.1 4l-.8 57.6c0 2.4 0 4-2.4 4-2.3 0-2.3-1.6-2.3-4V26.1c0-2.2-.8-3.9-3.2-3.9-2.3 0-3 1.7-3 3.9l-4 57.7c0 2.4 0 4-2.3 4-2.4 0-2.4-1.6-2.4-4l3.1-57.7c0-2.3-.7-3.9-3-3.9-2.4 0-3.2 1.6-3.2 3.9L124 91.6c0 11 2.7 13.8 11 18a17.4 17.4 0 019.3 17.6L133.1 248a16.6 16.6 0 0016.5 18.3 16.7 16.7 0 0016.6-18.3l-10.9-120.8a17.4 17.4 0 019.4-17.6c8.2-4.2 11-7 11-18l-4.8-65.5c0-2.3-1-3.9-3-3.9zM219.4 143.3c1.5.1 2.9-1 3-2.5l9.4-107.2c.3-2.7-1.7-5-4.4-5.3a5.2 5.2 0 00-5.4 3.3l-22 57a59.7 59.7 0 003.9 51 5.3 5.3 0 004.1 2.7l-20.5 109.2a16.6 16.6 0 0015 19.6 16.7 16.7 0 0018-16.7l-1.1-111.1z" fill="#fff"/><path d="M8.1 140c-6.4-.6-10.1 6.3-7 11.8l142.2 244.3a7.8 7.8 0 0013.5 0L299 152c3.2-5.5-.7-12.5-7-12l-144.3 14.1L8 140.1z" fill="#41B883"/></svg>