<svg xmlns="http://www.w3.org/2000/svg" viewBox="0 0 330 100"><path fill="#41B883" d="M178.333 0L165 23.094 151.667 0h-44.401L165 100 222.734 0h-44.401z"/><path fill="#34495E" d="M178.333 0L165 23.094 151.667 0h-21.308L165 59.999 199.641 0h-21.308z"/><path fill="#8899A6" d="M324.876 18.496l-8.02 8.023s-5.349 2.673-10.696-2.676c-5.349-5.347-2.676-10.696-2.676-10.696l8.023-8.023C314.183 2.451 310.968 0 308.555 0c-11.848 0-21.45 9.602-21.45 21.447 0 1.665.211 3.279.567 4.835l-18.13 18.131 16.042 16.042 18.131-18.127a21.66 21.66 0 0 0 4.838.567c11.845 0 21.447-9.602 21.447-21.448.003-2.427-2.451-5.624-5.124-2.951zm-55.65 26.44l-35.65 35.648c-4.373 4.375-4.373 11.468 0 15.843 4.378 4.373 11.468 4.373 15.843 0l35.645-35.647-15.838-15.844zm-27.66 48.183a4.334 4.334 0 0 1-4.334-4.334 4.335 4.335 0 0 1 8.669 0 4.334 4.334 0 0 1-4.335 4.334z"/><path fill="#F4900C" d="M314.882 97.334c3.41 3.41 8.838 3.571 12.053.354 3.217-3.217 3.056-8.643-.354-12.053L258.536 17.59c-3.413-3.414-8.836-3.571-12.053-.354-3.218 3.217-3.057 8.643.354 12.053l68.045 68.045z"/><path fill="#66757F" d="M287.43 2.612s-17.549-8.775-32.173 5.849l-20.473 20.474s-2.925-2.925-5.85 0l-2.925 2.925s-2.925 2.924 0 5.849l11.699 11.699s2.925 2.925 5.85 0l2.925-2.924s2.925-2.925 0-5.85l-.228-.228c2.252-2.173 5.624-4.387 9.002-2.697l11.699-11.699s-2.925-8.774 2.925-14.624c0 0 8.774-5.849 14.624-5.849l2.925-2.925z"/><path fill="#99AAB5" d="M58.111 4.167a4.167 4.167 0 1 0-8.333 0v26.389a2.779 2.779 0 0 1-5.556 0V4.167A4.165 4.165 0 0 0 40.056 0a4.165 4.165 0 0 0-4.167 4.167v26.389a2.779 2.779 0 0 1-5.556 0V4.167A4.165 4.165 0 0 0 26.167 0 4.165 4.165 0 0 0 22 4.167v25c0 .352.058.691.142 1.019A12.109 12.109 0 0 0 22 31.944c0 6.434 4.861 16.548 11.111 17.895v43.217A6.943 6.943 0 0 0 40.056 100 6.943 6.943 0 0 0 47 93.056V49.839c6.25-1.347 11.111-11.461 11.111-17.895 0-.6-.058-1.183-.142-1.758.084-.328.142-.667.142-1.019v-25zM81.722 0c-.289 0-.566.053-.85.086C80.694.058 80.519 0 80.333 0c-6.136 0-13.889 15.214-13.889 30.556 0 12.938 3.542 23.777 8.334 26.866v35.634A6.943 6.943 0 0 0 81.722 100a6.944 6.944 0 0 0 6.945-6.944V6.944A6.944 6.944 0 0 0 81.722 0z"/></svg>