<svg xmlns="http://www.w3.org/2000/svg" viewBox="0 0 300 415"><path d="M7 155c-5 1-8 7-5 12l142 245c3 5 10 5 13 0l142-245c3-5 0-11-5-12l-141-28h-5L7 155z" fill="#108775"/><path d="M145 2L29 118c-2 3-3 6-2 9l116 279c3 7 12 7 15 0l116-279c1-3 0-6-2-9L156 2c-3-3-8-3-11 0z" fill="#35495E"/><path d="M77 46c-12 1-25 35-23 60 1 16 8 25 16 28 7 3 12 10 12 17l-2 122a17 17 0 0019 17 17 17 0 0015-20L91 150c-1-7 2-14 8-18 8-5 13-15 12-31-3-25-21-56-34-55zM170 27c-3 0-3 2-3 4l2 58c0 3 0 4-2 4-3 0-3-1-3-4l-3-58c0-2-1-4-3-4s-3 2-3 4l-1 58c0 3 0 4-2 4-3 0-3-1-3-4V31c0-2-1-4-3-4s-3 2-3 4l-4 58c0 3 0 4-2 4-3 0-3-1-3-4l3-58c0-2 0-4-3-4-2 0-3 2-3 4l-5 66c0 11 2 14 11 18 6 3 10 10 9 18l-11 121a17 17 0 0016 18 17 17 0 0017-18l-11-121c-1-8 3-15 10-18 8-4 11-7 11-18l-5-66c0-2-1-4-3-4zM220 154c2 0 3-1 3-3l9-107c1-3-1-5-4-5-2-1-5 1-5 3l-22 57c-7 17-5 36 3 51 1 2 3 3 5 3l-21 110a17 17 0 0015 19 17 17 0 0018-17l-1-111z" fill="#fff"/><path d="M9 155c-6-1-11 6-7 12l142 245c3 5 10 5 13 0l142-245c4-6-1-13-7-12l-144 14L9 155z" fill="#41B883"/></svg>